<?xml version="1.0" encoding="utf-8"?>
<!-- Generator: Adobe Illustrator 14.0.0, SVG Export Plug-In . SVG Version: 6.00 Build 43363)  -->
<!DOCTYPE svg PUBLIC "-//W3C//DTD SVG 1.1//EN" "http://www.w3.org/Graphics/SVG/1.1/DTD/svg11.dtd">
<svg version="1.1" id="Ebene_1" xmlns="http://www.w3.org/2000/svg" xmlns:xlink="http://www.w3.org/1999/xlink" x="0px" y="0px"
	 width="200px" height="200px" viewBox="0 0 200 200" enable-background="new 0 0 200 200" xml:space="preserve">
<g>
	<g>
		<g>
			<path fill="#202020" d="M155.429,20.613c-0.023-0.807-0.337,0.415-0.099-0.532C155.464,20.197,155.56,20.359,155.429,20.613z"/>
			<path fill="#202020" d="M40.664,181.76c2.588-0.782,6.016-0.127,8.797-0.934c0.325-0.085-0.03,0.51,0.7,0.285
				c2.652-1,6.911-1.362,10.323-1.683l-0.16,0.195c0.643-0.085,1.27-0.76,1.935-0.89c0.031,0.089-0.171,0.19,0.015,0.271
				c0.084-0.322,1.14-0.477,1.353-0.761c0.29,0.029,0.332,0.251,0.703,0.271l0.273-0.419c0.8-1,2.478-0.843,3.727-1.709
				c-0.04,0.095-0.155,0.201-0.02,0.229c2.07-1.188,4.729-2.42,7.049-3.645c-0.044,0.146-0.041,0.372,0.156,0.424
				c-0.023-0.343,0.643-0.82,1.232-1.208c0.441,0.159,0.911-0.853,1.725-1.071l-0.025,0.101c0.358-0.608,0.897-0.244,1.117-0.859
				l0.476,0.055c-0.005-0.543,0.897-0.207,1.194-0.697l-0.065-0.078c0.341-0.354,0.677-0.271,1.008-0.575l0.064,0.025
				c0.807-0.652,1.461-0.738,1.234-1.05c0.472,0.069-0.773,0.647-0.052,0.728c2.703-2.083,5.558-4.095,8.258-6.184
				c0.398-0.12,0.621-0.237,0.779-0.177c0.219-0.275,0.963-0.86,1.081-1.206c-0.084,0.078,0.297,0.015,0.451-0.084
				c0.579-0.276,0.262-0.749,0.906-1.042c-0.147,0.247-0.14,0.4,0.023,0.453c0.275-0.579,0.864-1.088,1.322-1.611
				c-0.037,0.12-0.136,0.26-0.038,0.334c0.34-0.758,1.074-0.861,1.425-1.461l-0.037,0.329c0.975-0.508-0.075-0.555,0.717-1.047
				c-0.117,0.199-0.001,0.211,0.03,0.305c0.369-0.869,1.501-1.681,1.997-2.4l0.037,0.092c0.626-0.689,1.407-1.285,2.01-2.129
				c0.335-0.192,0.297,0.469,0.941-0.284c-0.343-0.287,1.059-1.305,0.284-1.247c0.643-0.544,1.646-1.428,1.919-1.938
				c-0.132,0.394,0.676,0.067,0.23,0.609l0.557-0.207c0.08,0.182-0.415,0.36-0.133,0.393c0.226-0.273,0.789-1.148,1.055-1.332
				c0.239-0.665,0.262-1.444,0.929-2.255c-0.204,0.479,0.559,0.116,0.39,0.414l0.302-1.678c0.207-0.281,0.314,0.17,0.55-0.294
				c-0.105-0.057-0.021-0.273,0.003-0.452c0.125-0.068,0.843-1.185,1.278-1.021c0.23-0.011-0.295,0.495,0.074,0.298
				c0.41-0.498,0.312-0.616,0.72-1.117l0.054,0.027c0.324-0.286,0.658-1.082,0.174-0.879c-0.2,0.22,0.277,0.079-0.104,0.336
				c-0.012-0.395,0.432-0.996,0.806-1.521c-0.078,0.218,0.029,0.269,0.074,0.416c0.253-0.903,0.72-1.699,1.188-2.555
				c-0.156-0.139,0.084,0.517-0.089,0.563c0.979-0.812,1.215-2.28,2.177-2.849c-0.072,0.156-0.294-0.104-0.239-0.078
				c0.38-0.459,0.612-0.257,0.741-0.643c0.166,0.071,0.231-0.436,0.415-0.795c0.014-0.244,0.13-0.035-0.053,0.262
				c0.197-0.547,1.238-2.531,2.184-3.442c-0.111-0.046,0.093-0.89,0.271-1.124l0.162,0.247c0.293-0.13,0.543-0.827,0.758-0.745
				c0.088-0.7-1.135,2.168-0.866,1.319c0.316-0.056,0.314-1.221,0.521-0.863c0.329-0.494,0.364-1.159,0.886-1.495
				c-0.124,0.114,0.062,0.615,0.302,0.198c0.411-0.743,0.019-0.275,0.309-0.905l0.135-0.424c-0.211-0.167,0.434-0.618,0.014-0.513
				c0.242,0.029,0.54-1.108,0.869-0.801l0.233,0.285c0.174-0.323,0.008-0.702,0.03-1.024c0.053-0.024,0.163-0.068,0.201-0.023
				c-0.423-0.329,0.504-0.714,0.384-1.295c0.562-0.554,0.991-1.67,1.463-1.812c0.155-0.593,0.258-1.153,0.69-1.677
				c-0.022,0.141-0.101,0.307-0.021,0.397c0.347-0.287,0.277-0.447,0.395-0.824c0.025,0.114,0.693-0.576,1.093-0.891
				c0.153-0.586-0.199-0.552-0.323-0.688c0.741-0.201,0.509-1.604,1.233-1.971c-0.03,0.215-0.17,0.881,0.174,0.513
				c0.712-0.225,0.161-1.142,0.784-1.785l-0.484-0.018c0.418-0.214,0.365-1.241,0.719-0.957c-0.005-0.327,0.603-0.833,0.179-0.944
				c1.002-1.078,1.386-3.151,2.43-3.608c0.023-0.215,0.309-0.642,0.066-0.644c-0.359,0.2-0.051,0.5-0.251,0.543
				c0.067-0.171-0.021-0.257-0.065-0.301c0.277-0.354,0.455-0.654,0.595-0.124c0.661-0.771-0.217-1.227,0.472-2.278
				c0.135,0.126,0.235,0.068,0.368-0.272l0.024-0.752c0.411-0.697,0.562-0.245,0.842-0.138c0.141-0.411,0.383-0.881,0.252-1.155
				l0.551-0.327c-0.399,0.24-0.023-0.4-0.01-0.615l-0.014,0.215c0.147-0.02,0.275-0.511,0.342-0.759
				c-0.194-0.019-0.465,0.418-0.624,0.65c-0.032-0.256,0.132-0.558,0.106-0.889c0.229,0.208,0.47-0.561,0.634-0.861
				c0.215-0.336-0.063-0.513-0.01-0.613c0.144,0.051,0.278-0.578,0.353-0.213c-0.008,0.143-0.257,0.223-0.222,0.479
				c0.206-0.192,0.438-0.06,0.474-0.631c0.028-0.429-0.572-0.134-0.098-0.764c-0.013,0.213,0.08,0.293,0.114,0.479l0.427-0.601
				l-0.233-0.133c0.102-0.062,0.096,0.008,0.146-0.019c-0.173-0.307,0.358-1.042,0.131-1.313c0.114-0.345,0.483-0.626,0.633-0.94
				l-0.003,0.071c0.3-0.335,0.41-0.899,0.372-1.298l0.048,0.039c0.104-0.208,0.264-0.732,0.224-1.061
				c0.399-0.469,1.009,0.19,0.933-0.538c0.208-0.557-0.117-1.044-0.363-0.885c0.557-0.927,0.589-2.208,1.338-2.981
				c-0.047-0.182-0.14-0.112-0.095-0.433c0.617-1.44,0.794-3.219,1.702-4.22c-0.044,0.464,0.244,0.116,0.39,0.157
				c-0.102-0.432,0.385-0.345,0.041-0.605c-0.24-0.044-0.339-0.117-0.576,0.267c0.185-0.923,0.657-2.258,1.038-2.677
				c-0.187,0.21-0.192-0.003-0.202-0.22c0.347,0.185,0.606-0.455,0.633-0.995l-0.201-0.142l0.331-0.25
				c-0.012-0.214-0.403-0.361-0.035-0.785c0.096,0.001,0.192,0.001,0.285-0.069c-0.022-0.573-0.107-1.394,0.257-1.892l0.47-0.355
				c0.039-0.25-0.033-0.711-0.259-0.321c0.495-0.891,0.712-1.497,1.091-1.715c-0.198-1.853,0.406-4.264,0.994-6.172l0.154,0.104
				c0.301-0.475-0.223-0.349-0.006-0.677c0.116,0.21,0.461-0.301,0.548,0.158c0.383-0.694-0.032-1.032,0.023-1.532
				c-0.203-0.131,0.036,0.424-0.222,0.257c-0.049-0.1,0.444-0.981,0.128-1.185c0.178-0.153,0.392,0.055,0.504,0.191l-0.055-0.498
				c0.529-0.46,0.401,1.453,1.029,0.99l0.049-0.435c0.45-0.315,0.13,1.22,0.506,0.188c-0.056-0.504-0.453-1.02-0.701-0.648
				c0.136-0.98-0.701-0.645-0.427-1.663c0.266-0.231-0.149,0.833,0.177,0.705c0.389-0.417,0.08-1.007,0.278-1.414
				c-0.242,0.447-0.488-0.04-0.477-0.363c0.285-0.482,0.24,0.417,0.452-0.314c-0.167-0.168-0.151-0.882-0.429-0.328
				c-0.381-0.372,0.307-0.738,0.059-1.22c0.371-0.168,0.541,0.929,0.893,0.153c-0.333,0.059-0.171-1.095-0.72-0.769
				c0.161-0.297,0.407-0.277,0.537-0.003c0.295-0.412-0.287-1.225,0.348-1.24l-0.271-0.225c0.137-0.12,0.257-0.307,0.47-0.505
				c0.088-0.402-0.154-1.389,0.306-1.252c-0.021-0.139,0.188-1.056-0.207-0.769c-0.314,0.53,0.1,0.708-0.401,0.933
				c0.438-0.328,0.121-0.835,0.069-1.189l0.192-0.016c-0.031-0.211,0.102-0.656-0.069-0.82c0.072,0.173,0.213,0.12,0.288-0.027
				l-0.233-0.263c0.025-0.826,0.523-0.089,0.602-0.883l0.093,0.635c-0.02-0.139,0.293-0.352,0.283-0.742
				c-0.222-0.196-0.469-0.527-0.639-0.69c-0.021-0.459,0.324-0.141,0.154-0.623l0.188,0.625c0.065,0.103,0.494-0.298,0.607-0.886
				c-0.011-0.392-0.256-1.042-0.515-0.479c0.056-0.294,0.294-0.676,0.431-0.408c0.049-0.682-0.29,0.036-0.329-0.567
				c0.226-0.201,0.581-0.895,0.903-1.294l0.32,0.682l0.073-0.4c0.249,0.583,0.302-0.218,0.608,0.142
				c0.103-0.265,0.038-0.622-0.01-0.904c-0.709,0.701-0.629-1.041-1.19-0.898c0.044-1.122,1.388-0.467,0.765-1.754
				c-0.168,0.165-0.474-0.442-0.44,0.275c0.173-0.673-0.445-0.552-0.092-1.32c0.113,0.631,0.639-0.553,0.804,0.36
				c-0.162-0.086-0.213,0.46-0.188,0.6c0.249-0.248,0.517,0.147,0.636-0.554c0.023-0.437,0.113-1.024-0.175-0.983
				c-0.303-0.032-0.078,0.657-0.335,0.334c0.041-0.867,0.521-0.937,0.049-1.374c-0.049,0.544-0.381,0.629-0.585,0.585l-0.019-0.642
				l0.179,0.152c0.313-0.977-0.312-0.352-0.093-1.311l0.46-0.396c0.321,0.286-0.384,1.387,0.202,1.301
				c0.128-0.628-0.108-0.879,0.111-1.455l0.049,0.463c0.05-0.224,0.812-0.34,0.508-1.31c-0.104-0.492-0.18-0.152-0.386-0.194
				c0.077-1.027-0.093-1.361-0.036-2.021c0.386,0.191,0.198-1.153,0.513-0.372c-0.282,0.301-0.46,1.774-0.125,2.192
				c0.53-0.301-0.176,0.791,0.278,1.081c0.123-0.816,0.589-0.707,0.915-0.794c0.054-0.225-0.048-0.464-0.076-0.607
				c-0.277-0.138-0.314,0.16-0.616,0.133c0.204-0.902,0.163-1.805-0.053-2.347c0.186-0.285,0.463-0.15,0.442,0.215
				c0.062-1.099,0.26-2.254,0.489-3.276c-0.567,0.609,0.046-1.165-0.412-0.757c-0.183,0.54-0.586,0.971-0.757,0.641
				c0.077-0.34,0.206,0.037,0.327-0.095c-0.199-0.471,0.515-0.631,0.146-1.114c0.048,1.012,0.559,0.263,0.913,0.49
				c-0.136-0.744,0.262,0.063,0.336-0.65c-0.134-0.741-0.205-1.64-0.203-2.445c0.456-0.963,0.268-2.534,0.346-3.428
				c0.237-0.45,0.627-0.093,0.753-0.595c0.054-0.598-0.501,0.4-0.217-0.465l0.075,0.093c-0.058-0.275,0.439-1.597-0.158-1.91
				l0.438,0.312c0.054-0.162-0.041-0.324-0.08-0.464c0.15,0.005,0.299-0.176,0.378,0.101c0.354-0.522,0.031-1.154,0.061-1.749
				l-0.299,0.362c-0.141-1.033,0.176-1.694,0.151-2.685l0.263,0.048l-0.117-0.597c0.248,0.161,0.451-0.367,0.258-0.69l0.542,1.567
				c-0.187,0.413-0.287-0.485-0.568-0.237c-0.245,0.211-0.235,1.126,0.009,1.292c0.054-0.347-0.003-0.368-0.08-0.646
				c0.378-0.089,0.326,0.44,0.555,0.721c-0.003-0.185,0.128-0.437,0.014-0.485c0.154,0.373,0.157,0.738,0.124,1.339
				c-0.116-0.417-0.244,0.204-0.339,0.042c0.321,0.072,0.382,0.654,0.238,1.389c-0.42,0.497,0.161,1.414-0.045,2.262
				c-0.292-0.378-0.508-0.844-0.609-1.377c-0.201,0.524-0.031,0.6-0.255,1.123c0.218,0.282,0.575,0.501,0.651,1.217l-0.246,0.016
				c0.059,0.646,0.418,0.682,0.266,1.485c-0.263,1.376-0.41,2.804-0.55,3.86l-0.245,0.012c0.466,0.65-0.018,1.984,0.09,2.801
				c-0.416,1.313-0.169,2.952-0.679,3.584c-0.114,2.401-0.253,4.502-0.781,6.932l-0.278-0.47c0.182,0.48-0.25,0.251-0.271,0.689
				c0.363-0.447,0.261,0.657,0.423,0.997c-0.457,1.043-0.398,2.493-0.32,3.506l-0.246-0.007c0.251,1.056-0.381,2.143-0.701,3.336
				c-0.127,0.119-0.396,0.292-0.442,0.657c0.251,0.734,0.153,1.072,0.197,2.086c-0.151,0.702-0.456,1.83-0.785,2.502
				c-0.1,2.748-1.056,5.359-1.432,8.163l-0.33,0.123c-0.151,2.78-1.519,5.884-1.917,8.19l-0.401-0.354
				c-0.36,0.652-0.373,1.622,0.015,1.546c-0.362,0.654-0.319,1.815-0.842,2.138c-0.309,0.686-0.058,0.942-0.181,1.557
				c-0.613,1.376-0.762,1.91-1.146,3.272l0.146-0.321c-0.051-0.181-0.243-0.26-0.39,0.061c-0.045,0.542-0.766,1.785-0.04,1.481
				c-0.821,1.308-0.897,3.419-1.834,4.64c0.194-0.06,0.088,0.296,0.133,0.478c-0.478,1.238-1.288,2.417-1.42,3.5
				c-0.15,0.167-0.131-0.412-0.343,0.084c-0.059,0.32,0.192,0.082,0.131,0.482c-0.479,2.125-1.926,3.909-2.632,5.724
				c-1.047,3.329-2.799,6.517-4.183,9.541l-0.089-0.086c-0.064,1.216-1.608,2.112-1.411,3.214c-0.222,0.182-0.516,0.866-0.625,0.589
				c-0.134,0.935-1.417,2.056-1.661,3.383c0.064-0.1,0.075-0.171,0.095-0.315c-0.85,1.009-1.129,2.163-2.011,3.235
				c0.025-0.146,0.12-0.382,0.039-0.476c-0.459,0.344-0.197,1.331-0.83,1.297c-0.147,0.265,0.137,0.331,0.216,0.161
				c-1.633,2.509-3.122,5.34-4.657,8.066c-1.534,1.665-0.864-0.411-1.512,1.273c-0.172,0.058,0.119,0.207,0.009,0.161
				c-0.258,0.649-1.124,0.516-1.148,1.07c0.396,0.037-0.02,0.369,0.146,0.501c-0.963,0.994-1.371,1.035-1.77,2.073l-0.103-0.173
				c-0.299,1.339-1.438,2.317-1.598,3.533c-4.103,5.648-8.27,10.958-13.147,15.789c-4.933,4.625-9.825,9.214-15.766,12.798
				c-1.581,0.546-1.712,0.553-3.102,1.676c0.02-0.104,0.104-0.179-0.036-0.177c0.134,0.38-1.039,0.69-0.987,1.1
				c-2.168,1.35-4.268,2.434-6.566,3.722c0.348-0.234,0.386-0.619-0.037-0.362l-0.342,0.468l-0.127-0.064
				c-0.281,0.193-0.533,0.522-0.158,0.489c-5.833,3.262-12.349,4.681-18.638,6.164c-1.534,0.207-3.656,0.771-5.322,1.035
				c-5.006,0.278-9.439-0.125-14.464,0.123C37.914,182.969,38.627,181.963,40.664,181.76z"/>
			<path fill="#202020" d="M155.4,21.581c-0.209,0.161-0.356,0.715-0.585,0.252C155.003,21.788,155.229,21.512,155.4,21.581z"/>
			<path fill="#202020" d="M152.074,36.318c0.057,0.026-0.101,0.203-0.137,0.246c0.004-0.185-0.143-0.375-0.026-0.51
				C151.906,36.243,152.002,36.225,152.074,36.318z"/>
			<path fill="#202020" d="M151.463,40.084c-0.165-0.081-0.193-0.905-0.149-1.384L151.463,40.084z"/>
			<path fill="#202020" d="M150.268,43.499c-0.188,0.281-0.256,0.186-0.195-0.221C150.168,43.262,150.195,43.403,150.268,43.499z"/>
			<path fill="#202020" d="M150.628,43.806c-0.035,0.292-0.157,0.423-0.276,0.55C150.503,44.368,150.352,43.666,150.628,43.806z"/>
			<path fill="#202020" d="M148.88,51.315c-0.018,0.184,0.059,0.604-0.162,0.739C148.884,51.888,148.651,51.128,148.88,51.315z"/>
			<path fill="#202020" d="M148.486,54.875c-0.034,0.111-0.075,0.151-0.055,0.291c-0.121,0.193-0.201-0.051-0.182-0.229
				L148.486,54.875z"/>
			<polygon fill="#202020" points="127.836,116.37 127.939,115.986 128.066,116.118 			"/>
			<path fill="#202020" d="M112.359,140.282c-0.146,0.375-0.291,0.111-0.35,0.146C112.205,140.141,112.101,140.665,112.359,140.282z
				"/>
			<polygon fill="#202020" points="102.852,152.419 102.932,152.332 103.16,152.612 			"/>
		</g>
	</g>
</g>
<g>
	<g>
		<g>
			<path fill="#202020" d="M155.132,20.428c0.004-0.088-0.188-0.138-0.042-0.103C155.159,20.407,155.206,20.472,155.132,20.428z"/>
			<path fill="#202020" d="M142.63,32.719c-0.337-0.634,0.35-0.339,0.202-0.812c-0.001-0.04,0.262,0.271,0.24,0.164
				c-0.219-0.535,0.255-0.559,0.737-0.46l0.063,0.087c0.091,0.018-0.113-0.276-0.039-0.28l0.136,0.143
				c-0.141-0.161,0-0.14-0.095-0.269l0.277,0.21l-0.149-0.194c-0.345-0.469,0.179-0.122,0.053-0.416l0.104,0.115
				c-0.112-0.382,0.104-0.505,0.163-0.748l0.236,0.241c-0.173-0.188-0.172-0.28-0.166-0.355c0.203,0.167-0.1-0.239,0.05-0.184
				l0.037,0.044c-0.159-0.229,0.163,0.06-0.04-0.201l0.167,0.123c-0.245-0.276,0.187,0.084,0.083-0.077l-0.055-0.053
				c-0.036-0.091,0.109,0.026,0.091-0.043l0.032,0.027c-0.009-0.127,0.171-0.017-0.034-0.219c0.185,0.143,0.017,0.132,0.288,0.337
				c-0.016-0.406,0.228-0.566,0.42-0.768l0.227,0.143c-0.021-0.062,0.036-0.112-0.051-0.234c-0.002,0.011,0.117,0.092,0.138,0.091
				c0.113,0.041-0.185-0.263-0.054-0.211l0.18,0.211c-0.125-0.192-0.055-0.212-0.066-0.303l0.104,0.133
				c-0.137-0.224,0.117-0.041,0.041-0.193l0.104,0.132c0.204,0.082-0.229-0.264-0.091-0.232l0.12,0.142
				c-0.164-0.263-0.014-0.272-0.037-0.395l0.047,0.051c0.026-0.08,0.149-0.07,0.115-0.222c0.073,0.031,0.28,0.294,0.293,0.194
				c-0.238-0.234,0-0.193-0.301-0.427c0.087-0.01,0.253,0.002,0.205-0.11c0.067,0.111,0.312,0.265,0.291,0.325l0.174,0.113
				c0.092,0.101-0.064-0.001,0.067,0.111c0.011-0.03-0.024-0.182,0.032-0.162c-0.107-0.183-0.343-0.487-0.312-0.578
				c0.063,0.121,0.277,0.244,0.298,0.304l-0.367-0.536c0.009-0.031,0.19,0.182,0.158,0.091l-0.133-0.172
				c0.036,0.021,0.025-0.142,0.268,0.082c0.099,0.081,0.015,0.081,0.121,0.142c0.035-0.039-0.044-0.121-0.01-0.162l0.031,0.031
				c0.06,0.01-0.026-0.171-0.182-0.273c-0.023,0.01,0.146,0.133,0.054,0.091c-0.118-0.152-0.112-0.233-0.077-0.272l0.148,0.181
				c-0.133-0.233-0.138-0.344-0.158-0.476c-0.109-0.111,0.181,0.222,0.114,0.172c0.225,0.082-0.069-0.365,0.214-0.201
				c0.01,0.029-0.162-0.152-0.13-0.122c0.048-0.021,0.206,0.141,0.17,0.06c0.096,0.092-0.002-0.059-0.008-0.11
				c-0.056-0.08,0.052,0.04,0.042,0.07c-0.047-0.111-0.062-0.385,0.148-0.323c-0.063-0.061-0.182-0.274-0.158-0.284l0.139,0.152
				c0.103,0.071,0.045-0.07,0.173,0.052c-0.141-0.213,0.009,0.291-0.077,0.105c0.134,0.108-0.163-0.301,0.024-0.092
				c0.028-0.04-0.102-0.237,0.067-0.134c-0.033-0.014,0.174,0.23,0.191,0.192c0.023-0.075-0.056-0.083-0.064-0.172l-0.035-0.084
				c-0.14-0.144,0.063-0.024-0.113-0.165c0.123,0.111-0.001-0.143,0.229,0.097l0.178,0.192c0.008-0.035-0.16-0.23-0.226-0.328
				l0.092,0.076c-0.28-0.287,0.074-0.027-0.12-0.271c0.143,0.054,0.122-0.104,0.319,0.051c-0.052-0.12-0.122-0.252-0.022-0.23
				l0.075,0.116c0.107,0.059,0.039-0.022,0.016-0.09c0.037,0.047,0.214,0.117,0.342,0.19c-0.051-0.118-0.216-0.259-0.306-0.356
				c0.311,0.249-0.084-0.276,0.208-0.062l0.187,0.229c0.31,0.248-0.144-0.268,0.04-0.185l-0.244-0.219
				c0.166,0.121-0.061-0.208,0.17,0.033c-0.066-0.1,0.136,0.018-0.096-0.203c0.273,0.109,0.084-0.315,0.54,0.041
				c-0.026-0.05,0.042-0.041-0.08-0.151c-0.146-0.106,0.062,0.118-0.03,0.039l-0.086-0.114c0.077,0.026,0.113,0.022,0.277,0.235
				c0.196,0.083-0.326-0.443-0.165-0.427c0.09,0.097,0.131,0.126,0.137,0.09l-0.12-0.2c0.084-0.01,0.239,0.187,0.399,0.344
				c-0.003-0.052,0.035-0.075-0.071-0.205l0.229,0.168c-0.166-0.122-0.075-0.116-0.103-0.167l0.027,0.05
				c0.072,0.063,0.06-0.007,0.054-0.042c-0.102-0.095-0.171-0.105-0.215-0.118l-0.086-0.185c0.149,0.161,0.15,0.07,0.187,0.066
				c0.057,0.011-0.113-0.165-0.102-0.167c0.081,0.081,0.051-0.023,0.146,0.107c0.018,0.034-0.097-0.061-0.038,0.024
				c0.075,0.044,0.214,0.187,0.143,0.053c-0.054-0.101-0.313-0.301-0.171-0.248l0.134,0.18l0.123,0.039l-0.141-0.144l0.071,0.063
				c-0.137-0.162,0.018-0.11-0.141-0.287c0.006-0.036,0.143,0.054,0.179,0.05l0.009,0.016c0.107,0.059,0.086-0.028,0.011-0.145
				l0.03,0.032c0.024-0.002,0.033-0.056-0.033-0.156c0.141,0.073,0.547,0.524,0.405,0.308c0.029-0.039-0.206-0.313-0.311-0.391
				c0.158,0.034-0.003-0.267,0.274-0.104l-0.105-0.148c0.146-0.034,0.023-0.359,0.374-0.152c0.033,0.085,0.141,0.144,0.221,0.224
				c-0.104-0.148,0.158,0.105-0.052-0.12c-0.13-0.126-0.189-0.19-0.267-0.216c-0.016-0.123,0.066-0.206,0.216-0.116l-0.128-0.145
				c0.2,0.208,0.271,0.199,0.229,0.097l-0.12-0.128l0.148,0.108c-0.028-0.051-0.248-0.274-0.1-0.185l0.143,0.125
				c-0.071-0.133-0.2-0.35-0.061-0.278l0.209,0.154c-0.005-0.034-0.09-0.168-0.168-0.195c0.167,0.052,0.218,0.028,0.394,0.167
				c-0.283-0.482-0.154-0.643-0.011-0.731l0.089,0.097c0.118,0.056-0.146-0.179-0.06-0.136l0.301,0.303
				c0.143,0.054-0.104-0.219-0.117-0.29c-0.118-0.127,0.055,0.102-0.095-0.06c-0.039-0.048,0.157,0.034-0.021-0.158l0.28,0.288
				l-0.062-0.118c0.249,0.183,0.311,0.462,0.612,0.694l-0.004-0.054c0.218,0.169,0.152,0.284,0.281,0.288
				c-0.063-0.119-0.309-0.411-0.415-0.468c0.006-0.108-0.415-0.468-0.339-0.513c0.126,0.092-0.022,0.075,0.142,0.216
				c0.178,0.12-0.025-0.141,0.052-0.115c-0.098-0.041-0.261-0.252-0.276-0.305c0.118,0.057,0.155,0.195,0.219,0.171
				c-0.101-0.114-0.14-0.235-0.249-0.274c-0.227-0.258,0.112,0.021-0.051-0.19c0.185,0.157,0.349,0.439,0.481,0.476
				c-0.172-0.156-0.163-0.283-0.432-0.5c0.065,0.027,0.196,0.155,0.283,0.27c0.129,0.074-0.233-0.365,0.101-0.049l-0.158-0.177
				l0.221,0.152c0.027-0.021-0.15-0.304,0.101-0.048c-0.018-0.034,0.048-0.077-0.148-0.231c-0.141-0.073,0.089,0.167-0.167-0.051
				c0.218,0.169,0.023-0.075-0.021-0.159l0.102,0.095c-0.027-0.05,0.021-0.056-0.077-0.169l0.151,0.142l-0.137-0.161
				c-0.027-0.122,0.273,0.251,0.275,0.161l0.081,0.151c-0.018-0.033,0.138,0.091,0.113,0.023l-0.373-0.438
				c-0.033-0.085,0.165,0.142,0.051-0.023l0.131,0.198c0.04,0.05,0.247,0.202,0.278,0.164c-0.025-0.069-0.187-0.3-0.297-0.34
				c0.016-0.02,0.123,0.039,0.209,0.152c-0.008-0.087-0.152-0.142-0.203-0.26c0.104,0.077,0.277,0.163,0.436,0.269l0.192,0.264
				l0.026-0.021c0.151,0.212,0.154,0.123,0.329,0.333c0.046,0.014,0-0.071-0.034-0.137c-0.355-0.261-0.369-0.474-0.663-0.741
				c-0.013-0.142,0.724,0.643,0.352,0.136c-0.085-0.062-0.267-0.308-0.227-0.186c0.071-0.01-0.255-0.31-0.091-0.241
				c0.08,0.151,0.322,0.247,0.439,0.465c-0.089-0.096-0.099-0.042-0.081-0.009c0.125,0.092,0.28,0.287,0.321,0.246
				c-0.002-0.052,0.027-0.092-0.125-0.233c-0.161-0.16-0.021,0.056-0.167-0.124c-0.006-0.106,0.247,0.131-0.019-0.176
				c-0.008,0.055-0.182-0.104-0.292-0.215l-0.03-0.104l0.1,0.114c0.136,0.018-0.177-0.211-0.091-0.24l0.238,0.185
				c0.168,0.196-0.164,0.002,0.143,0.289c0.049-0.025-0.089-0.188,0.022-0.146l0.032,0.085c0.023-0.003,0.43,0.376,0.252,0.094
				c-0.062-0.117-0.098-0.112-0.208-0.224c0.026-0.093-0.069-0.224-0.049-0.28c0.209,0.224,0.089-0.047,0.269,0.217
				c-0.146-0.107-0.22-0.009-0.035,0.219c0.278,0.235-0.083,0.011,0.164,0.283c0.055-0.042,0.305,0.213,0.478,0.371
				c0.024-0.001-0.032-0.084-0.05-0.118c-0.15-0.161-0.166-0.142-0.327-0.301c0.096-0.011,0.061-0.149-0.062-0.331
				c0.095,0.06,0.245,0.221,0.239,0.257c0.017-0.11,0.105-0.156,0.213-0.169c-0.293-0.215,0.008-0.126-0.23-0.312
				c-0.089-0.025-0.298-0.178-0.394-0.31c0.036-0.004,0.11,0.112,0.173,0.158c-0.113-0.164,0.263,0.183,0.069-0.062
				c0.023,0.14,0.298,0.321,0.486,0.53c-0.07-0.153,0.14,0.144,0.181,0.103l-0.102-0.379c0.247,0.13,0.15-0.144,0.194-0.204
				c0.128,0.074,0.335,0.317,0.403,0.327c0.03-0.039-0.268-0.217-0.114-0.166l0.04,0.05c-0.036-0.067,0.247,0.059-0.062-0.279
				l0.228,0.26c0.032,0.013-0.015-0.052-0.033-0.086l0.2,0.208c0.199,0.136,0.039-0.093,0.066-0.134l-0.166-0.122
				c-0.054-0.172,0.128-0.068,0.135-0.175l0.14,0.143l-0.051-0.119c0.129,0.146,0.247,0.202,0.15,0.07l0.258,0.433
				c-0.107-0.059-0.144-0.197-0.298-0.321c-0.135-0.109-0.148-0.017-0.021,0.127c0.036-0.004,0.006-0.037-0.029-0.103
				c0.203,0.189,0.165,0.213,0.281,0.359c0.002-0.019,0.077,0.026,0.017-0.038c0.075,0.116,0.069,0.152,0.04,0.191
				c-0.054-0.1-0.135-0.109-0.182-0.174c0.17,0.176,0.19,0.262,0.099,0.256c-0.23-0.17,0.049,0.208-0.056,0.203
				c-0.155-0.195-0.271-0.361-0.311-0.462c-0.119-0.057-0.03,0.04-0.149-0.018c0.115,0.146,0.305,0.356,0.344,0.477l-0.131-0.127
				c0.029,0.103,0.221,0.294,0.138,0.304c-0.144,0.017-0.226,0.099-0.303,0.144l-0.131-0.126c0.241,0.31-0.012,0.215,0.065,0.383
				c-0.202-0.046-0.046,0.292-0.309,0.109c-0.038,0.237-0.061,0.454-0.25,0.549l-0.164-0.211c0.112,0.163-0.125-0.092-0.122-0.039
				c0.179,0.121,0.16,0.229,0.258,0.362c-0.21-0.083-0.132,0.158-0.057,0.345l-0.131-0.127c0.186,0.299-0.095,0.154-0.205,0.186
				c-0.062-0.045-0.196-0.154-0.203-0.119c0.171,0.247,0.136,0.252,0.21,0.439c-0.041,0.041-0.159,0.056-0.282,0.017
				c0.139,0.448-0.207,0.418-0.19,0.755l-0.163-0.14c0.168,0.48-0.317,0.377-0.284,0.676l-0.246-0.272
				c-0.121-0.038-0.027,0.163,0.167,0.336c-0.121-0.038,0.021,0.23-0.219,0.043c-0.09-0.005,0.068,0.172,0.067,0.242
				c-0.184-0.013-0.193,0.042-0.225,0.17l0.036-0.003c-0.049-0.066-0.158-0.177-0.195-0.174c0.043,0.103-0.18,0.041,0.16,0.321
				c-0.265-0.092-0.056,0.346-0.381,0.188c0.092,0.078,0.087,0.115,0.136,0.181c-0.072,0.08-0.324-0.014-0.24,0.19
				c-0.055-0.03-0.125-0.164-0.165-0.141l0.136,0.181c0.035,0.28-0.411,0.084-0.481,0.237c-0.034,0.361-0.323,0.485-0.485,0.702
				l-0.06-0.064c0.174,0.301-0.392-0.094-0.085,0.314c-0.074-0.044-0.085,0.029-0.194-0.102c0.117,0.218-0.299-0.017-0.159,0.27
				l-0.015-0.052c-0.212-0.063-0.089,0.189-0.291,0.143l-0.084-0.133c-0.149-0.089,0.191,0.334-0.125,0.051
				c-0.015,0.02,0.139,0.163,0.141,0.143c-0.287,0.054-0.278,0.427-0.387,0.673c-0.307-0.052-0.513-0.497-0.39-0.173
				c-0.065-0.049,0.108,0.121,0.045,0.06c0.046,0.123-0.395-0.274-0.265-0.09c0.195,0.173,0.085,0.121,0.196,0.234
				c-0.197-0.042-0.379-0.192-0.3,0.009l-0.093-0.102c0.201,0.346-0.028,0.282,0.227,0.659c-0.339,0.454-0.544,1.009-0.894,1.432
				c-0.442,0.322-0.675,0.838-1.231,1.058c-0.345-0.163-0.345-0.149-0.342,0.054l-0.086-0.093c0.204,0.214-0.05,0.09,0.14,0.298
				c-0.183,0.105-0.257,0.294-0.403,0.443c0.001-0.046-0.158-0.228-0.172-0.187l0.104,0.163l-0.063-0.054
				c0.012,0.05,0.094,0.174,0.181,0.222c-0.19,0.551-0.974,0.498-1.285,0.912c-0.174-0.001-0.217,0.202-0.268,0.338
				c-0.556,0-1.031,0.025-1.119,0.502C143.14,33.536,142.638,32.96,142.63,32.719z"/>
			<path fill="#202020" d="M155.098,20.504c-0.114-0.095-0.204-0.12-0.316-0.284L155.098,20.504z"/>
			<path fill="#202020" d="M153.161,20.293c0.03,0.032-0.055-0.03-0.074-0.044c0.003-0.019-0.075-0.117-0.013-0.071L153.161,20.293z
				"/>
			<path fill="#202020" d="M152.879,20.451c-0.09-0.096-0.116-0.217-0.1-0.256L152.879,20.451z"/>
			<path fill="#202020" d="M152.29,20.274c-0.096-0.061-0.134-0.108-0.107-0.13L152.29,20.274z"/>
			<path fill="#202020" d="M152.487,20.5c-0.015,0.02-0.078-0.026-0.14-0.072C152.428,20.507,152.337,20.339,152.487,20.5z"/>
			<path fill="#202020" d="M151.771,20.676c-0.004,0.018,0.05,0.118-0.062,0.025C151.792,20.762,151.644,20.532,151.771,20.676z"/>
			<polygon fill="#202020" points="151.704,21.024 151.689,21.043 151.582,20.914 			"/>
			<polygon fill="#202020" points="148.304,25.17 148.28,25.102 148.369,25.197 			"/>
			<path fill="#202020" d="M146.655,26.829c0.036,0.081-0.103-0.072-0.12-0.082C146.545,26.717,146.642,26.87,146.655,26.829z"/>
			<polygon fill="#202020" points="146.227,28.184 146.231,28.175 146.42,28.368 			"/>
		</g>
	</g>
</g>
<g>
	<g>
		<g>
			<path fill="#202020" d="M154.666,19.814c-0.084-0.019-0.171,0.157-0.107,0.023C154.651,19.785,154.725,19.75,154.666,19.814z"/>
			<path fill="#202020" d="M163.995,33.805c-0.681,0.219-0.257-0.39-0.742-0.327c-0.039-0.005,0.314-0.206,0.207-0.204
				c-0.562,0.123-0.488-0.335-0.295-0.782l0.097-0.047c0.035-0.084-0.289,0.063-0.278-0.008l0.166-0.107
				c-0.184,0.109-0.136-0.023-0.278,0.047l0.26-0.232l-0.218,0.111c-0.523,0.254-0.081-0.19-0.392-0.118l0.133-0.081
				c-0.393,0.045-0.468-0.182-0.689-0.279l0.281-0.187c-0.217,0.135-0.306,0.119-0.378,0.102c0.203-0.168-0.25,0.056-0.167-0.079
				l0.051-0.028c-0.254,0.115,0.091-0.147-0.202,0.006l0.152-0.141c-0.316,0.19,0.12-0.165-0.058-0.092l-0.062,0.043
				c-0.096,0.02,0.047-0.101-0.023-0.094l0.032-0.026c-0.124-0.013,0.019-0.167-0.219-0.003c0.176-0.153,0.132,0.005,0.385-0.22
				c-0.396-0.052-0.501-0.312-0.656-0.529l0.185-0.193c-0.063,0.011-0.101-0.053-0.236,0.01c0.01,0.004,0.112-0.097,0.116-0.117
				c0.062-0.102-0.292,0.134-0.215,0.017l0.241-0.138c-0.212,0.089-0.217,0.019-0.307,0.015l0.149-0.079
				c-0.244,0.095-0.016-0.119-0.178-0.071l0.147-0.077c0.121-0.183-0.301,0.175-0.243,0.049l0.162-0.093
				c-0.288,0.115-0.266-0.031-0.389-0.028l0.059-0.036c-0.072-0.039-0.037-0.155-0.191-0.147c0.045-0.065,0.341-0.22,0.247-0.25
				c-0.274,0.19-0.187-0.031-0.474,0.219c0.008-0.085,0.053-0.242-0.065-0.214c0.121-0.046,0.319-0.255,0.373-0.226l0.145-0.148
				c0.116-0.071-0.014,0.062,0.121-0.046c-0.027-0.015-0.181-0.007-0.149-0.058c-0.198,0.073-0.541,0.25-0.622,0.205
				c0.13-0.041,0.292-0.225,0.354-0.235l-0.593,0.264c-0.028-0.014,0.214-0.152,0.12-0.136l-0.193,0.099
				c0.026-0.031-0.133-0.048,0.133-0.243c0.099-0.082,0.081-0.001,0.162-0.093l-0.159-0.017l0.036-0.025
				c0.022-0.055-0.171-0.003-0.301,0.129c0.005,0.024,0.158-0.119,0.099-0.036c-0.171,0.088-0.248,0.069-0.279,0.029l0.205-0.112
				c-0.252,0.089-0.359,0.075-0.491,0.073c-0.131,0.087,0.251-0.137,0.189-0.081c0.124-0.203-0.368,0.007-0.15-0.238
				c0.029-0.004-0.181,0.131-0.145,0.105c-0.01-0.049,0.179-0.175,0.093-0.153c0.107-0.077-0.058-0.007-0.108-0.011
				c-0.089,0.041,0.049-0.043,0.076-0.029c-0.117,0.027-0.385-0.003-0.282-0.195c-0.071,0.051-0.302,0.13-0.307,0.105l0.176-0.108
				c0.09-0.087-0.059-0.055,0.085-0.157c-0.234,0.099,0.283,0.039,0.086,0.091c0.132-0.111-0.323,0.107-0.084-0.039
				c-0.032-0.034-0.249,0.059-0.115-0.086c-0.021,0.029,0.258-0.129,0.225-0.152c-0.068-0.034-0.093,0.04-0.18,0.033l-0.088,0.02
				c-0.167,0.111-0.012-0.064-0.183,0.082c0.132-0.1-0.139-0.022,0.14-0.203l0.222-0.14c-0.032-0.013-0.254,0.116-0.362,0.162
				l0.093-0.075c-0.334,0.221-0.011-0.076-0.286,0.07c0.081-0.128-0.075-0.134,0.115-0.297c-0.127,0.03-0.269,0.076-0.229-0.016
				l0.128-0.053c0.079-0.094-0.013-0.041-0.084-0.03c0.054-0.028,0.157-0.187,0.254-0.296c-0.125,0.029-0.295,0.164-0.406,0.234
				c0.303-0.257-0.284,0.036-0.018-0.209c0.055-0.018,0.198-0.054,0.26-0.141c0.303-0.257-0.289,0.093-0.171-0.069l-0.262,0.198
				c0.151-0.139-0.214,0.025,0.066-0.157c-0.109,0.047,0.046-0.127-0.215,0.059c0.161-0.244-0.287-0.132,0.148-0.511
				c-0.053,0.017-0.03-0.047-0.161,0.052c-0.133,0.123,0.126-0.041,0.031,0.036l-0.128,0.064c0.041-0.07,0.045-0.105,0.283-0.228
				c0.12-0.175-0.494,0.24-0.445,0.089c0.111-0.071,0.148-0.105,0.115-0.117l-0.219,0.083c0.008-0.082,0.229-0.199,0.414-0.327
				c-0.052-0.006-0.065-0.046-0.213,0.035l0.21-0.192c-0.151,0.139-0.128,0.053-0.182,0.07l0.054-0.018
				c0.076-0.059,0.005-0.058-0.029-0.059c-0.112,0.082-0.136,0.146-0.157,0.188c-0.091,0.041-0.088,0.006-0.196,0.052
				c0.186-0.117,0.099-0.133,0.103-0.168c0.021-0.052-0.183,0.082-0.182,0.07c0.094-0.064-0.013-0.052,0.133-0.123
				c0.037-0.012-0.078,0.083,0.016,0.04c0.059-0.064,0.224-0.174,0.08-0.127c-0.107,0.035-0.354,0.251-0.273,0.123l0.2-0.099
				l0.063-0.111l-0.167,0.111l0.075-0.059c-0.185,0.105-0.103-0.035-0.306,0.088c-0.034-0.012,0.081-0.128,0.084-0.163l0.018-0.006
				c0.079-0.094-0.01-0.086-0.138-0.034l0.037-0.023c0.003-0.024-0.047-0.042-0.157,0.006c0.099-0.123,0.617-0.438,0.38-0.338
				c-0.032-0.035-0.345,0.146-0.44,0.234c0.064-0.146-0.259-0.041-0.045-0.279l-0.165,0.077c-0.004-0.146-0.343-0.082-0.071-0.384
				c0.09-0.018,0.167-0.111,0.261-0.175c-0.165,0.077,0.134-0.134-0.126,0.03c-0.148,0.104-0.223,0.151-0.264,0.221
				c-0.122-0.006-0.185-0.098-0.067-0.227l-0.167,0.099c0.242-0.158,0.248-0.227,0.141-0.204l-0.148,0.094l0.135-0.124
				c-0.056,0.019-0.315,0.193-0.198,0.065l0.148-0.116c-0.143,0.046-0.379,0.134-0.281,0.012l0.191-0.175
				c-0.034,0-0.181,0.059-0.223,0.129c0.084-0.152,0.071-0.205,0.242-0.35c-0.524,0.193-0.652,0.043-0.709-0.108l0.112-0.07
				c0.078-0.104-0.203,0.111-0.145,0.036l0.354-0.239c0.081-0.128-0.233,0.064-0.305,0.065c-0.146,0.093,0.109-0.036-0.076,0.081
				c-0.055,0.029,0.064-0.145-0.157-0.005l0.335-0.222l-0.126,0.041c0.228-0.209,0.51-0.222,0.795-0.474l-0.053-0.005
				c0.208-0.18,0.306-0.099,0.336-0.222c-0.128,0.042-0.46,0.229-0.537,0.322c-0.103-0.023-0.536,0.321-0.564,0.24
				c0.114-0.105,0.068,0.034,0.237-0.1c0.152-0.151-0.142,0.001-0.101-0.069c-0.06,0.087-0.297,0.209-0.351,0.216
				c0.079-0.104,0.221-0.117,0.21-0.182c-0.131,0.077-0.256,0.095-0.316,0.194c-0.295,0.175,0.044-0.104-0.194,0.018
				c0.189-0.152,0.496-0.262,0.559-0.384c-0.187,0.139-0.307,0.11-0.571,0.333c0.04-0.059,0.189-0.164,0.318-0.228
				c0.098-0.111-0.4,0.165-0.026-0.104l-0.203,0.123l0.191-0.187c-0.015-0.029-0.324,0.095-0.026-0.104
				c-0.036,0.012-0.064-0.058-0.253,0.105c-0.1,0.123,0.179-0.058-0.084,0.152c0.208-0.181-0.067-0.035-0.157-0.005l0.112-0.082
				c-0.054,0.018-0.049-0.03-0.179,0.046l0.167-0.122l-0.184,0.105c-0.123,0.006,0.299-0.221,0.213-0.238l0.161-0.053
				c-0.034,0.011,0.117-0.117,0.046-0.105l-0.498,0.286c-0.09,0.019,0.17-0.135-0.013-0.053l0.217-0.093
				c0.057-0.03,0.246-0.204,0.216-0.24c-0.072,0.013-0.328,0.13-0.389,0.229c-0.017-0.018,0.062-0.111,0.189-0.175
				c-0.085-0.006-0.168,0.123-0.292,0.151l0.348-0.373l0.294-0.142l-0.016-0.028c0.236-0.11,0.15-0.127,0.389-0.261
				c0.022-0.042-0.068-0.012-0.139,0.011c-0.325,0.298-0.533,0.276-0.852,0.515c-0.14-0.011,0.769-0.589,0.203-0.315
				c-0.078,0.071-0.352,0.205-0.226,0.186c0.005-0.069-0.351,0.194-0.251,0.048c0.162-0.053,0.304-0.269,0.539-0.345
				c-0.111,0.07-0.061,0.087-0.025,0.076c0.114-0.104,0.334-0.222,0.303-0.268c-0.05-0.007-0.083-0.041-0.251,0.081
				c-0.188,0.129,0.05,0.029-0.152,0.141c-0.104-0.012,0.176-0.216-0.174-0.012c0.051,0.017-0.137,0.158-0.267,0.245l-0.106,0.012
				l0.13-0.077c0.045-0.127-0.24,0.134-0.25,0.048l0.227-0.198c0.224-0.13-0.031,0.157,0.308-0.09
				c-0.014-0.051-0.199,0.055-0.137-0.045l0.089-0.018c0.002-0.023,0.451-0.35,0.142-0.227c-0.125,0.041-0.128,0.076-0.259,0.163
				c-0.085-0.04-0.23,0.03-0.28,0.001c0.259-0.163-0.026-0.093,0.265-0.221c-0.134,0.123-0.054,0.209,0.204,0.069
				c0.283-0.229-0.007,0.081,0.307-0.111c-0.029-0.058,0.268-0.256,0.455-0.396c0.004-0.024-0.088,0.017-0.124,0.029
				c-0.186,0.117-0.171,0.135-0.357,0.264c0.009-0.093-0.131-0.082-0.332,0.006c0.077-0.081,0.263-0.198,0.297-0.187
				c-0.103-0.034-0.129-0.127-0.12-0.232c-0.268,0.246-0.121-0.028-0.348,0.17c-0.042,0.082-0.232,0.256-0.379,0.327
				c0.003-0.036,0.13-0.088,0.187-0.14c-0.182,0.081,0.23-0.222-0.045-0.076c0.141,0,0.371-0.233,0.611-0.379
				c-0.163,0.042,0.167-0.111,0.136-0.157c-0.161,0.042-0.302,0.053-0.388,0.036c0.177-0.215-0.108-0.167-0.156-0.22
				c0.097-0.111,0.374-0.269,0.397-0.333c-0.031-0.035-0.264,0.221-0.183,0.083l0.056-0.03c-0.072,0.024,0.107-0.227-0.282,0.013
				l0.297-0.176c0.019-0.028-0.053,0.006-0.09,0.018l0.241-0.158c0.173-0.169-0.081-0.053-0.115-0.086l-0.152,0.139
				c-0.177,0.024-0.04-0.134-0.142-0.157l0.166-0.11l-0.125,0.029c0.167-0.1,0.246-0.205,0.099-0.134l0.472-0.176
				c-0.079,0.093-0.22,0.105-0.371,0.233c-0.133,0.112-0.047,0.14,0.118,0.042c0.003-0.035-0.034-0.011-0.105,0.012
				c0.225-0.164,0.239-0.124,0.404-0.211c-0.018-0.005,0.041-0.069-0.034-0.022c0.128-0.053,0.161-0.042,0.193-0.007
				c-0.107,0.035-0.133,0.111-0.205,0.146c0.204-0.134,0.292-0.14,0.268-0.053c-0.21,0.193,0.212-0.012,0.185,0.087
				c-0.22,0.117-0.403,0.2-0.51,0.223c-0.078,0.104,0.032,0.035-0.047,0.14c0.164-0.087,0.406-0.234,0.53-0.252l-0.149,0.105
				c0.105-0.012,0.329-0.164,0.322-0.083c-0.014,0.14,0.05,0.232,0.077,0.314l-0.148,0.105c0.349-0.182,0.205,0.046,0.383,0
				c-0.086,0.187,0.273,0.092,0.043,0.313c0.222,0.075,0.427,0.133,0.479,0.33l-0.238,0.123c0.182-0.081-0.113,0.104-0.062,0.11
				c0.153-0.151,0.254-0.116,0.401-0.188c-0.122,0.187,0.127,0.151,0.323,0.11l-0.149,0.105c0.326-0.129,0.129,0.116,0.137,0.227
				c-0.057,0.051-0.188,0.162-0.155,0.174c0.273-0.123,0.271-0.088,0.467-0.129c0.031,0.046,0.021,0.162-0.042,0.273
				c0.461-0.06,0.362,0.267,0.69,0.306l-0.168,0.134c0.498-0.083,0.3,0.366,0.596,0.382l-0.312,0.192
				c-0.062,0.11,0.151,0.053,0.358-0.105c-0.062,0.11,0.227,0.017-0.003,0.216c-0.023,0.086,0.181-0.037,0.248-0.025
				c-0.05,0.174,0.001,0.192,0.119,0.244l0.003-0.035c-0.073,0.036-0.202,0.122-0.207,0.158c0.108-0.024,0.003,0.179,0.342-0.101
				c-0.143,0.238,0.323,0.11,0.105,0.396c0.094-0.075,0.128-0.064,0.202-0.1c0.062,0.082-0.08,0.308,0.135,0.261
				c-0.04,0.047-0.184,0.093-0.17,0.134l0.202-0.1c0.277,0.012-0.002,0.407,0.131,0.5c0.342,0.092,0.402,0.389,0.579,0.58
				l-0.074,0.047c0.326-0.118-0.171,0.36,0.286,0.133c-0.058,0.064,0.011,0.086-0.138,0.169c0.234-0.077-0.077,0.284,0.228,0.197
				l-0.053,0.006c-0.104,0.192,0.164,0.116,0.078,0.302l-0.145,0.058c-0.117,0.129,0.36-0.128,0.023,0.128
				c0.016,0.018,0.185-0.105,0.167-0.11c-0.007,0.284,0.355,0.336,0.57,0.48c-0.112,0.285-0.584,0.41-0.246,0.345
				c-0.061,0.055,0.139-0.084,0.067-0.034c0.127-0.023-0.346,0.334-0.142,0.239c0.207-0.159,0.134-0.062,0.266-0.15
				c-0.08,0.182-0.263,0.332-0.052,0.289l-0.117,0.072c0.375-0.137,0.267,0.073,0.682-0.11c0.37,0.399,0.864,0.687,1.202,1.091
				c0.221,0.477,0.672,0.784,0.771,1.353c-0.228,0.304-0.215,0.306-0.018,0.336l-0.107,0.067c0.248-0.16,0.076,0.063,0.316-0.084
				c0.064,0.192,0.232,0.294,0.346,0.459c-0.044-0.008-0.252,0.114-0.215,0.134l0.179-0.074l-0.065,0.052
				c0.051-0.003,0.188-0.062,0.251-0.138c0.493,0.273,0.282,1.015,0.619,1.381c-0.036,0.166,0.15,0.241,0.271,0.312
				c-0.112,0.533-0.185,0.992,0.258,1.154C164.889,33.449,164.229,33.836,163.995,33.805z"/>
			<path fill="#202020" d="M154.733,19.86c-0.114,0.094-0.157,0.176-0.339,0.257L154.733,19.86z"/>
			<path fill="#202020" d="M154.135,21.681c0.037-0.023-0.04,0.047-0.058,0.064c-0.018-0.006-0.128,0.053-0.07,0L154.135,21.681z"/>
			<path fill="#202020" d="M154.23,21.978c-0.111,0.07-0.233,0.076-0.268,0.053L154.23,21.978z"/>
			<path fill="#202020" d="M153.939,22.513c-0.078,0.082-0.132,0.111-0.147,0.082L153.939,22.513z"/>
			<path fill="#202020" d="M154.197,22.361c0.017,0.017-0.041,0.07-0.098,0.122C154.193,22.418,154.012,22.478,154.197,22.361z"/>
			<path fill="#202020" d="M154.223,23.076c0.017,0.006,0.124-0.029,0.011,0.064C154.31,23.07,154.057,23.175,154.223,23.076z"/>
			<polygon fill="#202020" points="154.545,23.197 154.561,23.214 154.413,23.296 			"/>
			<polygon fill="#202020" points="157.858,27.134 157.787,27.145 157.897,27.076 			"/>
			<path fill="#202020" d="M159.125,28.984c0.085-0.021-0.09,0.087-0.104,0.102C158.995,29.071,159.161,29.004,159.125,28.984z"/>
			<polygon fill="#202020" points="160.347,29.616 160.339,29.61 160.563,29.461 			"/>
		</g>
	</g>
</g>
</svg>
