<svg xmlns="http://www.w3.org/2000/svg" width="267" height="60"><g fill="#FF9500"><path d="M43.333 42.377c-.86 2.099-2.09 3.9-3.69 5.4-1.6 1.5-3.531 2.67-5.79 3.51-2.26.84-4.77 1.26-7.53 1.26-2.8 0-5.32-.42-7.56-1.26-2.241-.84-4.14-2.01-5.7-3.51s-2.76-3.301-3.6-5.4c-.84-2.1-1.26-4.43-1.26-6.99v-26.46h10.2v25.62c0 1.161.15 2.26.45 3.3.3 1.041.759 1.971 1.38 2.79.62.82 1.44 1.47 2.46 1.95s2.25.719 3.69.719 2.67-.239 3.69-.719 1.85-1.13 2.49-1.95c.64-.819 1.1-1.75 1.38-2.79.279-1.04.42-2.139.42-3.3v-25.62h10.26v26.46c.001 2.561-.43 4.89-1.29 6.99zM78.337 51.407l-17.1-27.78h-.18l.24 27.78h-9.96v-42.48h11.7l17.04 27.72h.18l-.24-27.72h9.96v42.48h-11.64zM119.334 19.967c-.88-1.12-2.03-2.01-3.45-2.67-1.42-.66-2.79-.99-4.11-.99-.68 0-1.371.06-2.07.18-.7.12-1.33.351-1.89.69-.561.34-1.03.78-1.41 1.32-.381.54-.57 1.23-.57 2.07 0 .72.15 1.32.45 1.8s.74.9 1.32 1.26c.58.36 1.27.69 2.07.99.799.3 1.7.61 2.7.93 1.44.48 2.94 1.01 4.5 1.59 1.56.581 2.979 1.35 4.26 2.31 1.28.96 2.34 2.15 3.18 3.57.84 1.42 1.26 3.19 1.26 5.31 0 2.44-.45 4.551-1.35 6.33-.9 1.78-2.11 3.25-3.63 4.41-1.521 1.16-3.261 2.021-5.22 2.58-1.96.56-3.98.84-6.06.84-3.04 0-5.98-.53-8.82-1.59-2.841-1.06-5.2-2.57-7.08-4.53l6.72-6.84c1.04 1.28 2.409 2.35 4.11 3.21 1.7.86 3.39 1.29 5.07 1.29.76 0 1.5-.08 2.22-.24.72-.159 1.35-.42 1.89-.779.54-.36.969-.841 1.29-1.44.319-.6.48-1.32.48-2.16 0-.8-.201-1.479-.6-2.04-.4-.56-.97-1.07-1.71-1.53-.741-.459-1.661-.879-2.76-1.26-1.101-.379-2.35-.789-3.75-1.23-1.36-.439-2.69-.96-3.99-1.56-1.3-.6-2.46-1.37-3.48-2.31-1.02-.939-1.84-2.079-2.46-3.42-.621-1.339-.93-2.97-.93-4.89 0-2.359.48-4.38 1.44-6.06.96-1.68 2.22-3.06 3.78-4.14 1.56-1.08 3.319-1.87 5.28-2.37 1.959-.5 3.939-.75 5.94-.75 2.4 0 4.85.441 7.35 1.32 2.5.88 4.689 2.181 6.57 3.9l-6.54 6.899zM170.148 30.047c0 3.72-.69 6.93-2.07 9.63-1.38 2.7-3.201 4.92-5.46 6.661-2.26 1.739-4.81 3.02-7.65 3.839-2.84.82-5.721 1.23-8.64 1.23h-15.84v-42.48h15.36c3 0 5.959.351 8.88 1.05 2.919.701 5.52 1.86 7.8 3.48 2.28 1.62 4.12 3.791 5.52 6.51 1.4 2.721 2.1 6.081 2.1 10.08zm-10.68 0c0-2.4-.39-4.39-1.17-5.97-.78-1.58-1.821-2.84-3.12-3.78-1.3-.939-2.78-1.61-4.44-2.01-1.66-.399-3.37-.6-5.13-.6h-5.1v24.84h4.86c1.84 0 3.609-.21 5.31-.63 1.7-.42 3.2-1.11 4.5-2.07 1.299-.96 2.34-2.24 3.12-3.84.78-1.599 1.17-3.579 1.17-5.94zM197.741 51.407l-9.223-16.86h-3.497v16.86h-10.02v-42.48h16.2c2.04 0 4.029.21 5.97.63 1.94.42 3.68 1.131 5.22 2.13 1.54 1 2.77 2.32 3.69 3.96.92 1.641 1.38 3.68 1.38 6.12 0 2.88-.78 5.301-2.34 7.26-1.56 1.96-3.72 3.36-6.48 4.2l11.1 18.18h-12zm-.42-29.46c0-1-.212-1.81-.634-2.43-.422-.62-.965-1.1-1.627-1.44-.664-.339-1.407-.57-2.231-.69s-1.618-.18-2.381-.18h-5.486v9.9h4.884c.844 0 1.708-.069 2.593-.21.884-.14 1.688-.39 2.412-.75s1.316-.879 1.778-1.56c.46-.679.692-1.56.692-2.64zM212.897 51.407v-42.48h28.56v8.64h-18.66v8.04h17.64v8.22h-17.64v8.82h19.74v8.76h-29.64zM248.057 51.407v-42.48h10.32v42.48h-10.32z"/></g></svg>